<?xml version="1.0" encoding="utf-8"?>
<!-- Generator: Adobe Illustrator 25.4.1, SVG Export Plug-In . SVG Version: 6.00 Build 0)  -->
<svg version="1.1" id="Layer_1" xmlns="http://www.w3.org/2000/svg" xmlns:xlink="http://www.w3.org/1999/xlink" x="0px" y="0px"
	 viewBox="0 0 400 400" style="enable-background:new 0 0 400 400;" xml:space="preserve">
<style type="text/css">
	.st0{fill-rule:evenodd;clip-rule:evenodd;fill:#191717;}
</style>
<path class="st0" d="M200,5.1C89.6,5.1,0,94.6,0,205.1c0,88.4,57.3,163.3,136.8,189.8c10,1.8,13.7-4.3,13.7-9.6
	c0-4.7-0.2-17.3-0.3-34c-55.6,12.1-67.4-26.8-67.4-26.8c-9.1-23.1-22.2-29.3-22.2-29.3C42.4,282.7,62,283,62,283
	c20.1,1.4,30.6,20.6,30.6,20.6c17.8,30.6,46.8,21.7,58.2,16.6c1.8-12.9,7-21.7,12.7-26.7c-44.4-5-91.1-22.2-91.1-98.8
	c0-21.8,7.8-39.7,20.6-53.7c-2.1-5.1-8.9-25.4,2-52.9c0,0,16.8-5.4,55,20.5c16-4.4,33.1-6.7,50.1-6.7c17,0.1,34.1,2.3,50.1,6.7
	C288.3,82.6,305,88,305,88c10.9,27.5,4,47.9,2,52.9c12.8,14,20.6,31.8,20.6,53.7c0,76.8-46.8,93.7-91.3,98.7
	c7.2,6.2,13.6,18.4,13.6,37c0,26.7-0.2,48.3-0.2,54.9c0,5.3,3.6,11.6,13.8,9.6C342.7,368.3,400,293.4,400,205.1
	C400,94.6,310.4,5.1,200,5.1z"/>
</svg>
