<svg xmlns="http://www.w3.org/2000/svg" width="598" height="521" fill="none" viewBox="0 0 598 521">
  <g filter="url(#filter0_d_1_12)">
    <rect width="502.244" height="500.291" x="5" y="3" fill="#fff" rx="7"/>
  </g>
  <rect width="445" height="39" x="34.476" y="222.27" fill="#ECECEC" rx="10"/>
  <rect width="445" height="39" x="34.476" y="222.27" fill="#ECECEC" rx="10"/>
  <rect width="445" height="39" x="34.476" y="222.27" fill="#ECECEC" rx="10"/>
  <rect width="445" height="39" x="34.476" y="222.27" fill="#ECECEC" rx="10"/>
  <rect width="445" height="39" x="34.476" y="222.27" fill="#ECECEC" rx="10"/>
  <g>
    <rect width="445" height="39" x="34.476" y="293.27" fill="#ECECEC" rx="10"/>
    <rect width="445" height="39" x="34.476" y="293.27" fill="#ECECEC" rx="10"/>
    <rect width="445" height="39" x="34.476" y="293.27" fill="#ECECEC" rx="10"/>
    <rect width="445" height="39" x="34.476" y="293.27" fill="#ECECEC" rx="10"/>
    <rect width="445" height="39" x="34.476" y="293.27" fill="#ECECEC" rx="10"/>
  </g>
  <g>
    <rect width="445" height="39" x="34.476" y="364.27" fill="#ECECEC" rx="10"/>
    <rect width="445" height="39" x="34.476" y="364.27" fill="#ECECEC" rx="10"/>
    <rect width="445" height="39" x="34.476" y="364.27" fill="#ECECEC" rx="10"/>
    <rect width="445" height="39" x="34.476" y="364.27" fill="#ECECEC" rx="10"/>
    <rect width="445" height="39" x="34.476" y="364.27" fill="#ECECEC" rx="10"/>
  </g>
  <g>
    <rect width="445" height="39" x="34.476" y="151.27" fill="#ECECEC" rx="10"/>
    <rect width="445" height="39" x="34.476" y="151.27" fill="#ECECEC" rx="10"/>
    <rect width="445" height="39" x="34.476" y="151.27" fill="#ECECEC" rx="10"/>
    <rect width="445" height="39" x="34.476" y="151.27" fill="#ECECEC" rx="10"/>
    <rect width="445" height="39" x="34.476" y="151.27" fill="#ECECEC" rx="10"/>
  </g>
  <path fill="#109C8B" d="M78.036 58.862H61.692v42.408h-9.864V58.862H35.484V50.15h42.552v8.712zM93.77 101.99c-3.072 0-5.832-.504-8.28-1.512-2.448-1.056-4.536-2.496-6.264-4.32a19.636 19.636 0 01-3.888-6.264 20.333 20.333 0 01-1.368-7.416c0-2.64.456-5.136 1.368-7.488a19.636 19.636 0 013.888-6.264c1.728-1.824 3.816-3.24 6.264-4.248 2.448-1.056 5.208-1.584 8.28-1.584 3.072 0 5.808.528 8.208 1.584 2.448 1.008 4.536 2.424 6.264 4.248a18.084 18.084 0 013.888 6.264c.912 2.352 1.368 4.848 1.368 7.488 0 2.592-.456 5.064-1.368 7.416a18.084 18.084 0 01-3.888 6.264c-1.68 1.824-3.744 3.264-6.192 4.32-2.448 1.008-5.208 1.512-8.28 1.512zm-9.864-19.512c0 2.208.432 4.176 1.296 5.904.864 1.68 2.04 3 3.528 3.96s3.168 1.44 5.04 1.44c1.824 0 3.48-.48 4.968-1.44 1.488-1.008 2.664-2.352 3.528-4.032.912-1.728 1.368-3.696 1.368-5.904 0-2.16-.456-4.104-1.368-5.832-.864-1.728-2.04-3.072-3.528-4.032s-3.144-1.44-4.968-1.44c-1.872 0-3.552.504-5.04 1.512-1.488.96-2.664 2.304-3.528 4.032-.864 1.68-1.296 3.624-1.296 5.832zm33.8-.072c0-3.648.72-6.936 2.16-9.864 1.44-2.976 3.432-5.328 5.976-7.056 2.544-1.728 5.448-2.592 8.712-2.592 2.784 0 5.28.696 7.488 2.088 2.256 1.344 4.008 3.072 5.256 5.184V48.71h9.648v41.76c0 1.008.168 1.728.504 2.16.336.432.912.696 1.728.792v7.848c-1.68.336-3.048.504-4.104.504-1.728 0-3.168-.432-4.32-1.296-1.104-.864-1.728-1.992-1.872-3.384l-.144-2.376c-1.392 2.352-3.288 4.152-5.688 5.4-2.352 1.248-4.824 1.872-7.416 1.872-2.592 0-4.992-.504-7.2-1.512a17.997 17.997 0 01-5.688-4.176c-1.584-1.776-2.832-3.84-3.744-6.192-.864-2.4-1.296-4.968-1.296-7.704zm29.592 5.04v-9a10.162 10.162 0 00-2.304-3.744c-1.056-1.104-2.232-1.968-3.528-2.592-1.296-.672-2.592-1.008-3.888-1.008-1.488 0-2.832.312-4.032.936a10.654 10.654 0 00-3.168 2.52c-.864 1.056-1.536 2.28-2.016 3.672a14.734 14.734 0 00-.648 4.392c0 1.536.24 3 .72 4.392a10.766 10.766 0 002.232 3.528 10.77 10.77 0 003.312 2.376c1.296.576 2.688.864 4.176.864.912 0 1.824-.144 2.736-.432.96-.336 1.848-.768 2.664-1.296a9.996 9.996 0 002.232-2.016 8.924 8.924 0 001.512-2.592zm16.526 2.664c0-2.448.672-4.584 2.016-6.408 1.392-1.872 3.312-3.312 5.76-4.32 2.448-1.008 5.256-1.512 8.424-1.512 1.584 0 3.192.12 4.824.36 1.632.24 3.048.624 4.248 1.152v-2.016c0-2.4-.72-4.248-2.16-5.544-1.392-1.296-3.48-1.944-6.264-1.944-2.064 0-4.032.36-5.904 1.08-1.872.72-3.84 1.776-5.904 3.168l-3.096-6.336c2.496-1.632 5.04-2.856 7.632-3.672 2.64-.816 5.4-1.224 8.28-1.224 5.376 0 9.552 1.344 12.528 4.032 3.024 2.688 4.536 6.528 4.536 11.52V90.47c0 1.008.168 1.728.504 2.16.384.432.984.696 1.8.792v7.848c-.864.144-1.656.264-2.376.36-.672.096-1.248.144-1.728.144-1.92 0-3.384-.432-4.392-1.296-.96-.864-1.56-1.92-1.8-3.168l-.216-1.944c-1.632 2.112-3.672 3.744-6.12 4.896-2.448 1.152-4.944 1.728-7.488 1.728-2.496 0-4.752-.504-6.768-1.512-1.968-1.056-3.528-2.472-4.68-4.248-1.104-1.824-1.656-3.864-1.656-6.12zm23.472 1.944c.528-.576.96-1.152 1.296-1.728.336-.576.504-1.104.504-1.584v-3.816c-1.152-.48-2.4-.84-3.744-1.08-1.344-.288-2.616-.432-3.816-.432-2.496 0-4.56.552-6.192 1.656-1.584 1.056-2.376 2.472-2.376 4.248 0 .96.264 1.872.792 2.736.528.864 1.296 1.56 2.304 2.088 1.008.528 2.208.792 3.6.792 1.44 0 2.856-.264 4.248-.792 1.392-.576 2.52-1.272 3.384-2.088zm19.85 16.56c.864.192 1.656.36 2.376.504.768.144 1.416.216 1.944.216.912 0 1.656-.24 2.232-.72.624-.432 1.224-1.248 1.8-2.448.576-1.152 1.176-2.784 1.8-4.896l-14.904-37.728h10.008l10.152 27.864 8.928-27.864h9.216l-15.84 45.216a13.157 13.157 0 01-2.664 4.536c-1.152 1.392-2.616 2.472-4.392 3.24-1.728.816-3.672 1.224-5.832 1.224-.768 0-1.536-.072-2.304-.216a14.351 14.351 0 01-2.52-.576v-8.352z"/>
  <defs>
    <filter id="filter0_d_1_12" width="522.244" height="520.291" x="0" y="0" color-interpolation-filters="sRGB" filterUnits="userSpaceOnUse">
      <feFlood flood-opacity="0" result="BackgroundImageFix"/>
      <feColorMatrix in="SourceAlpha" result="hardAlpha" values="0 0 0 0 0 0 0 0 0 0 0 0 0 0 0 0 0 0 127 0"/>
      <feMorphology in="SourceAlpha" radius="1" result="effect1_dropShadow_1_12"/>
      <feOffset dx="5" dy="7"/>
      <feGaussianBlur stdDeviation="5.5"/>
      <feComposite in2="hardAlpha" operator="out"/>
      <feColorMatrix values="0 0 0 0 0 0 0 0 0 0 0 0 0 0 0 0 0 0 0.16 0"/>
      <feBlend in2="BackgroundImageFix" result="effect1_dropShadow_1_12"/>
      <feBlend in="SourceGraphic" in2="effect1_dropShadow_1_12" result="shape"/>
    </filter>
  </defs>
</svg>
