<svg xmlns="http://www.w3.org/2000/svg" width="523" height="544" fill="none" viewBox="0 0 523 544">
  <g filter="url(#filter0_d_1_25)">
    <rect width="502.244" height="500.291" x="5.33" y="26.238" fill="#fff" rx="7"/>
  </g>
  <path fill="#109C8B" d="M106.944 349c0-8.64.672-16.416 2.016-23.328 1.344-6.912 3.648-13.344 6.912-19.296 3.456-5.952 8.064-11.52 13.824-16.704 5.952-5.376 13.44-10.56 22.464-15.552 7.872-4.224 14.784-7.872 20.736-10.944 5.952-3.264 10.944-6.24 14.976-8.928 4.224-2.688 7.392-5.376 9.504-8.064 2.112-2.88 3.168-6.144 3.168-9.792 0-3.84-1.056-7.296-3.168-10.368-2.112-3.264-5.088-5.856-8.928-7.776-3.84-1.92-8.64-2.88-14.4-2.88-4.608 0-8.928.576-12.96 1.728a46.571 46.571 0 00-10.944 4.896 66.174 66.174 0 00-9.216 7.2 61.534 61.534 0 00-7.776 8.064l-24.48-28.224c2.688-2.688 6.24-5.568 10.656-8.64 4.608-3.264 9.984-6.24 16.128-8.928 6.336-2.88 13.248-5.184 20.736-6.912 7.68-1.92 15.84-2.88 24.48-2.88 13.056 0 24.192 2.112 33.408 6.336 9.216 4.032 16.224 9.696 21.024 16.992 4.992 7.296 7.488 15.84 7.488 25.632 0 6.72-1.248 12.672-3.744 17.856-2.496 5.184-5.664 9.792-9.504 13.824a82.884 82.884 0 01-12.672 10.368c-4.416 3.072-8.736 5.76-12.96 8.064-5.952 3.072-11.328 5.952-16.128 8.64-4.8 2.496-9.024 5.088-12.672 7.776-3.648 2.496-6.912 5.088-9.792 7.776-2.688 2.688-5.088 5.76-7.2 9.216h87.84V349H106.944zm314.338-84.384c0 16.896-3.264 31.968-9.792 45.216-6.336 13.056-15.168 23.328-26.496 30.816-11.136 7.488-23.808 11.232-38.016 11.232-14.208 0-26.976-3.744-38.304-11.232-11.136-7.488-19.968-17.76-26.496-30.816-6.336-13.248-9.504-28.32-9.504-45.216s3.168-31.872 9.504-44.928c6.528-13.248 15.36-23.616 26.496-31.104 11.328-7.68 24.096-11.52 38.304-11.52 14.208 0 26.88 3.84 38.016 11.52 11.328 7.488 20.16 17.856 26.496 31.104 6.528 13.056 9.792 28.032 9.792 44.928zm-38.88 0c0-10.368-1.536-19.392-4.608-27.072-2.88-7.872-7.008-14.016-12.384-18.432-5.376-4.416-11.52-6.624-18.432-6.624-7.104 0-13.344 2.208-18.72 6.624-5.376 4.416-9.6 10.56-12.672 18.432-2.88 7.68-4.32 16.704-4.32 27.072 0 10.368 1.44 19.392 4.32 27.072 3.072 7.68 7.296 13.728 12.672 18.144 5.376 4.416 11.616 6.624 18.72 6.624 6.912 0 12.96-2.208 18.144-6.624 5.376-4.416 9.6-10.464 12.672-18.144 3.072-7.872 4.608-16.896 4.608-27.072z"/>
  <rect width="52" height="52" x="166" y="27" fill="#BBB" rx="26"/>
  <rect width="52" height="52" x="43" y="26" fill="#BBB" rx="26"/>
  <rect width="52" height="52" x="289" y="26" fill="#BBB" rx="26"/>
  <rect width="52" height="52" x="412" y="27" fill="#BBB" rx="26"/>
  <rect width="31" height="61" x="54" fill="#109C8B" rx="15.5"/>
  <rect width="31" height="61" x="177" fill="#109C8B" rx="15.5"/>
  <rect width="31" height="61" x="300" fill="#109C8B" rx="15.5"/>
  <rect width="31" height="61" x="423" fill="#109C8B" rx="15.5"/>
  <defs>
    <filter id="filter0_d_1_25" width="522.244" height="520.291" x=".33" y="23.238" color-interpolation-filters="sRGB" filterUnits="userSpaceOnUse">
      <feFlood flood-opacity="0" result="BackgroundImageFix"/>
      <feColorMatrix in="SourceAlpha" result="hardAlpha" values="0 0 0 0 0 0 0 0 0 0 0 0 0 0 0 0 0 0 127 0"/>
      <feMorphology in="SourceAlpha" radius="1" result="effect1_dropShadow_1_25"/>
      <feOffset dx="5" dy="7"/>
      <feGaussianBlur stdDeviation="5.5"/>
      <feComposite in2="hardAlpha" operator="out"/>
      <feColorMatrix values="0 0 0 0 0 0 0 0 0 0 0 0 0 0 0 0 0 0 0.16 0"/>
      <feBlend in2="BackgroundImageFix" result="effect1_dropShadow_1_25"/>
      <feBlend in="SourceGraphic" in2="effect1_dropShadow_1_25" result="shape"/>
    </filter>
  </defs>
</svg>
