<svg xmlns="http://www.w3.org/2000/svg" width="523" height="544" fill="none" viewBox="0 0 523 544">
  <g clip-path="url(#clip0_1_2)">
    <g filter="url(#filter0_d_1_2)">
      <path fill="#fff" d="M500.574 26.238H12.33a7 7 0 00-7 7v486.291a7 7 0 007 7h488.244a7 7 0 007-7V33.238a7 7 0 00-7-7z"/>
    </g>
    <path fill="#BBB" d="M218 53c0-14.36-11.641-26-26-26s-26 11.64-26 26 11.641 26 26 26 26-11.64 26-26zM95 52c0-14.36-11.64-26-26-26S43 37.64 43 52s11.64 26 26 26 26-11.64 26-26zM341 52c0-14.36-11.641-26-26-26s-26 11.64-26 26 11.641 26 26 26 26-11.64 26-26zM464 53c0-14.36-11.641-26-26-26s-26 11.64-26 26 11.641 26 26 26 26-11.64 26-26z"/>
    <path fill="#109C8B" d="M85 15.5C85 6.94 78.06 0 69.5 0 60.94 0 54 6.94 54 15.5v30C54 54.06 60.94 61 69.5 61 78.06 61 85 54.06 85 45.5v-30zM208 15.5C208 6.94 201.06 0 192.5 0 183.94 0 177 6.94 177 15.5v30c0 8.56 6.94 15.5 15.5 15.5 8.56 0 15.5-6.94 15.5-15.5v-30zM331 15.5C331 6.94 324.06 0 315.5 0 306.94 0 300 6.94 300 15.5v30c0 8.56 6.94 15.5 15.5 15.5 8.56 0 15.5-6.94 15.5-15.5v-30zM454 15.5C454 6.94 447.06 0 438.5 0 429.94 0 423 6.94 423 15.5v30c0 8.56 6.94 15.5 15.5 15.5 8.56 0 15.5-6.94 15.5-15.5v-30zM237.02 304.89l-27.69-27.69-13.78 13.78 41.34 41.34 78-78-13.78-13.78-64.09 64.35zm88.361-165.36l59.891 49.985-16.64 19.955-59.93-49.959 16.679-19.981zm-138.762 0l16.666 19.968-59.904 49.972-16.64-19.968 59.878-49.972zM256 168c-64.61 0-117 52.39-117 117s52.39 117 117 117 117-52.39 117-117-52.39-117-117-117zm0 208c-50.18 0-91-40.82-91-91s40.82-91 91-91 91 40.82 91 91-40.82 91-91 91z"/>
  </g>
  <defs>
    <clipPath id="clip0_1_2">
      <path fill="#fff" d="M0 0h523v544H0z"/>
    </clipPath>
    <filter id="filter0_d_1_2" width="524.244" height="522.291" x="-.67" y="22.238" color-interpolation-filters="sRGB" filterUnits="userSpaceOnUse">
      <feFlood flood-opacity="0" result="BackgroundImageFix"/>
      <feColorMatrix in="SourceAlpha" result="hardAlpha" values="0 0 0 0 0 0 0 0 0 0 0 0 0 0 0 0 0 0 127 0"/>
      <feOffset dx="5" dy="7"/>
      <feGaussianBlur stdDeviation="5.5"/>
      <feColorMatrix values="0 0 0 0 0 0 0 0 0 0 0 0 0 0 0 0 0 0 0.16 0"/>
      <feBlend in2="BackgroundImageFix" result="effect1_dropShadow_1_2"/>
      <feBlend in="SourceGraphic" in2="effect1_dropShadow_1_2" result="shape"/>
    </filter>
  </defs>
</svg>
